<svg width="500" height="500" viewBox="0 0 500 500" fill="none" xmlns="http://www.w3.org/2000/svg">
<mask id="mask0_3_64" style="mask-type:alpha" maskUnits="userSpaceOnUse" x="0" y="0" width="500" height="500">
<rect width="500" height="500" fill="#D9D9D9"/>
</mask>
<g mask="url(#mask0_3_64)">
<path d="M238.104 46.8814C244.105 39.5455 255.322 39.5455 261.323 46.8814L332.829 134.286C334.587 136.435 336.907 138.054 339.531 138.962L447.758 176.436C457.203 179.707 460.868 191.126 455.089 199.282L391.139 289.543C389.448 291.928 388.492 294.755 388.388 297.677L384.462 407.201C384.115 416.872 374.838 423.689 365.505 421.13L253.68 390.469C251.083 389.757 248.343 389.757 245.747 390.469L133.922 421.13C124.589 423.689 115.311 416.872 114.965 407.201L111.039 297.677C110.934 294.755 109.978 291.928 108.288 289.543L44.3377 199.282C38.5592 191.126 42.2238 179.707 51.6691 176.436L159.896 138.962C162.52 138.054 164.84 136.435 166.598 134.286L238.104 46.8814Z" fill="#F37E3D"/>
<path d="M353.343 75.9741C362.298 73.4261 371.377 79.8098 372.237 89.2578L382.573 202.877C382.826 205.655 383.827 208.314 385.467 210.559L453.731 304.031C459.699 312.202 456.268 323.867 446.898 327.266L344.363 364.466C341.613 365.464 339.218 367.268 337.48 369.652L273.454 457.477C267.771 465.272 256.404 465.602 250.191 458.153L174.969 367.951C173.259 365.9 171.046 364.345 168.559 363.445L59.1815 323.858C50.1482 320.589 46.3988 309.631 51.5084 301.432L109.076 209.067C110.639 206.559 111.437 203.633 111.37 200.654L108.872 89.6086C108.643 79.4602 118.098 72.0312 127.705 74.8099L237.595 106.594C240.235 107.358 243.026 107.365 245.659 106.616L353.343 75.9741Z" fill="#F37E3D"/>
<ellipse cx="249.725" cy="249.889" rx="148.725" ry="148.889" fill="#FFCC4A"/>
</g>
</svg>
